<svg xmlns="http://www.w3.org/2000/svg" xmlns:xlink="http://www.w3.org/1999/xlink" width="48" zoomAndPan="magnify" viewBox="0 0 36 36.000001" height="48" preserveAspectRatio="xMidYMid meet" version="1.0"><defs><g/></defs><g fill="#000000" fill-opacity="1"><g transform="translate(3.518823, 13.686042)"><g><path d="M 4.25 0 L 4.171875 -0.109375 L 4.46875 -0.109375 C 4.5625 -0.117188 4.609375 -0.164062 4.609375 -0.25 C 4.609375 -0.300781 4.582031 -0.375 4.53125 -0.46875 L 3.1875 -3.09375 L 3.046875 -3.09375 L 3.046875 -0.4375 C 3.046875 -0.226562 3.125 -0.117188 3.28125 -0.109375 L 3.5625 -0.109375 L 3.5625 0 L 0.234375 0 L 0.234375 -0.109375 L 0.53125 -0.109375 C 0.675781 -0.109375 0.75 -0.226562 0.75 -0.46875 L 0.75 -7.6875 C 0.75 -7.925781 0.675781 -8.046875 0.53125 -8.046875 L 0.234375 -8.046875 L 0.234375 -8.15625 L 3.421875 -8.15625 C 3.972656 -8.15625 4.507812 -8.0625 5.03125 -7.875 C 5.550781 -7.6875 5.984375 -7.390625 6.328125 -6.984375 C 6.671875 -6.585938 6.84375 -6.085938 6.84375 -5.484375 C 6.84375 -4.921875 6.707031 -4.46875 6.4375 -4.125 C 6.164062 -3.78125 5.800781 -3.519531 5.34375 -3.34375 L 6.828125 -0.4375 C 6.941406 -0.21875 7.070312 -0.109375 7.21875 -0.109375 L 7.515625 -0.109375 L 7.578125 0 Z M 3.046875 -3.234375 C 3.597656 -3.265625 4.023438 -3.5 4.328125 -3.9375 C 4.628906 -4.382812 4.78125 -4.925781 4.78125 -5.5625 C 4.78125 -6.007812 4.710938 -6.421875 4.578125 -6.796875 C 4.453125 -7.179688 4.285156 -7.484375 4.078125 -7.703125 C 3.878906 -7.929688 3.675781 -8.046875 3.46875 -8.046875 C 3.300781 -8.035156 3.1875 -8.003906 3.125 -7.953125 C 3.070312 -7.898438 3.046875 -7.820312 3.046875 -7.71875 Z M 3.046875 -3.234375 "/></g></g></g><g fill="#000000" fill-opacity="1"><g transform="translate(11.332282, 13.686042)"><g><path d="M 3.609375 -5.984375 C 4.210938 -5.984375 4.773438 -5.84375 5.296875 -5.5625 C 5.816406 -5.289062 6.226562 -4.921875 6.53125 -4.453125 C 6.84375 -3.984375 7 -3.472656 7 -2.921875 C 7 -2.359375 6.859375 -1.84375 6.578125 -1.375 C 6.304688 -0.90625 5.914062 -0.535156 5.40625 -0.265625 C 4.894531 0.00390625 4.296875 0.140625 3.609375 0.140625 C 2.921875 0.140625 2.316406 0.00390625 1.796875 -0.265625 C 1.285156 -0.535156 0.894531 -0.898438 0.625 -1.359375 C 0.363281 -1.828125 0.234375 -2.347656 0.234375 -2.921875 C 0.234375 -3.484375 0.375 -3.992188 0.65625 -4.453125 C 0.9375 -4.921875 1.332031 -5.289062 1.84375 -5.5625 C 2.363281 -5.84375 2.953125 -5.984375 3.609375 -5.984375 Z M 3.9375 -0.109375 C 4.144531 -0.109375 4.304688 -0.28125 4.421875 -0.625 C 4.535156 -0.976562 4.59375 -1.4375 4.59375 -2 C 4.59375 -2.332031 4.566406 -2.675781 4.515625 -3.03125 C 4.453125 -3.53125 4.351562 -3.984375 4.21875 -4.390625 C 4.09375 -4.804688 3.945312 -5.132812 3.78125 -5.375 C 3.613281 -5.613281 3.445312 -5.734375 3.28125 -5.734375 C 3.082031 -5.734375 2.925781 -5.554688 2.8125 -5.203125 C 2.695312 -4.859375 2.640625 -4.40625 2.640625 -3.84375 C 2.640625 -3.519531 2.660156 -3.175781 2.703125 -2.8125 C 2.765625 -2.3125 2.863281 -1.851562 3 -1.4375 C 3.132812 -1.03125 3.28125 -0.707031 3.4375 -0.46875 C 3.601562 -0.226562 3.769531 -0.109375 3.9375 -0.109375 Z M 3.9375 -0.109375 "/></g></g></g><g fill="#000000" fill-opacity="1"><g transform="translate(18.562651, 13.686042)"><g><path d="M 6.453125 -0.453125 C 6.453125 -0.347656 6.472656 -0.265625 6.515625 -0.203125 C 6.554688 -0.140625 6.613281 -0.109375 6.6875 -0.109375 L 7 -0.109375 L 7 0 L 5.09375 0 C 4.8125 -0.0078125 4.59375 -0.0664062 4.4375 -0.171875 C 4.289062 -0.273438 4.207031 -0.476562 4.1875 -0.78125 L 4.1875 -0.75 C 4.15625 -0.519531 3.988281 -0.328125 3.6875 -0.171875 C 3.382812 -0.015625 3.035156 0.0625 2.640625 0.0625 C 2.234375 0.0625 1.847656 -0.03125 1.484375 -0.21875 C 1.117188 -0.40625 0.816406 -0.707031 0.578125 -1.125 C 0.347656 -1.550781 0.234375 -2.09375 0.234375 -2.75 C 0.234375 -3.488281 0.390625 -4.085938 0.703125 -4.546875 C 1.015625 -5.015625 1.40625 -5.347656 1.875 -5.546875 C 2.34375 -5.742188 2.8125 -5.84375 3.28125 -5.84375 C 3.675781 -5.84375 3.976562 -5.785156 4.1875 -5.671875 L 4.1875 -7.625 C 4.1875 -7.925781 4.050781 -8.078125 3.78125 -8.078125 L 3.640625 -8.0625 L 3.640625 -8.15625 C 5.003906 -8.4375 5.929688 -8.726562 6.421875 -9.03125 L 6.453125 -8.96875 Z M 4.1875 -5.078125 C 4.1875 -5.253906 4.140625 -5.394531 4.046875 -5.5 C 3.960938 -5.613281 3.859375 -5.671875 3.734375 -5.671875 C 3.566406 -5.671875 3.394531 -5.578125 3.21875 -5.390625 C 3.050781 -5.203125 2.910156 -4.910156 2.796875 -4.515625 C 2.679688 -4.117188 2.625 -3.625 2.625 -3.03125 C 2.625 -2.550781 2.679688 -2.125 2.796875 -1.75 C 2.910156 -1.382812 3.054688 -1.101562 3.234375 -0.90625 C 3.410156 -0.707031 3.578125 -0.609375 3.734375 -0.609375 C 3.867188 -0.609375 3.972656 -0.671875 4.046875 -0.796875 C 4.128906 -0.929688 4.175781 -1.132812 4.1875 -1.40625 Z M 4.1875 -5.078125 "/></g></g></g><g fill="#000000" fill-opacity="1"><g transform="translate(25.793019, 13.686042)"><g><path d="M 6.453125 -2.5 C 6.453125 -2.195312 6.34375 -1.84375 6.125 -1.4375 C 5.90625 -1.039062 5.566406 -0.691406 5.109375 -0.390625 C 4.648438 -0.0976562 4.085938 0.046875 3.421875 0.046875 C 2.828125 0.046875 2.285156 -0.0664062 1.796875 -0.296875 C 1.316406 -0.535156 0.9375 -0.878906 0.65625 -1.328125 C 0.375 -1.773438 0.234375 -2.3125 0.234375 -2.9375 C 0.234375 -3.519531 0.382812 -4.035156 0.6875 -4.484375 C 1 -4.929688 1.410156 -5.273438 1.921875 -5.515625 C 2.441406 -5.765625 3.003906 -5.890625 3.609375 -5.890625 C 3.941406 -5.890625 4.269531 -5.832031 4.59375 -5.71875 C 4.914062 -5.601562 5.203125 -5.410156 5.453125 -5.140625 C 5.703125 -4.878906 5.859375 -4.546875 5.921875 -4.140625 L 2.765625 -2.421875 C 2.953125 -2.046875 3.195312 -1.765625 3.5 -1.578125 C 3.800781 -1.390625 4.125 -1.296875 4.46875 -1.296875 C 4.863281 -1.296875 5.234375 -1.40625 5.578125 -1.625 C 5.929688 -1.851562 6.207031 -2.171875 6.40625 -2.578125 Z M 2.59375 -2.78125 C 2.632812 -2.675781 2.664062 -2.613281 2.6875 -2.59375 L 3.796875 -3.234375 C 3.773438 -3.722656 3.6875 -4.234375 3.53125 -4.765625 C 3.375 -5.304688 3.164062 -5.578125 2.90625 -5.578125 C 2.875 -5.578125 2.832031 -5.570312 2.78125 -5.5625 C 2.65625 -5.519531 2.550781 -5.367188 2.46875 -5.109375 C 2.394531 -4.847656 2.359375 -4.546875 2.359375 -4.203125 C 2.359375 -3.691406 2.4375 -3.21875 2.59375 -2.78125 Z M 2.59375 -2.78125 "/></g></g></g><g fill="#000000" fill-opacity="1"><g transform="translate(2.015172, 29.542718)"><g><path d="M 3.28125 -0.015625 L 3.234375 -0.125 L 3.53125 -0.125 C 3.632812 -0.125 3.6875 -0.179688 3.6875 -0.296875 C 3.6875 -0.328125 3.679688 -0.375 3.671875 -0.4375 L 3.171875 -2.140625 L 1.59375 -2.140625 L 1.09375 -0.453125 C 1.082031 -0.410156 1.078125 -0.359375 1.078125 -0.296875 C 1.078125 -0.179688 1.128906 -0.125 1.234375 -0.125 L 1.53125 -0.125 L 1.484375 -0.015625 L 0.234375 -0.015625 L 0.265625 -0.125 L 0.578125 -0.125 C 0.722656 -0.125 0.828125 -0.234375 0.890625 -0.453125 L 3.1875 -8.171875 L 5.9375 -0.46875 C 6.007812 -0.238281 6.125 -0.125 6.28125 -0.125 L 6.578125 -0.125 L 6.609375 -0.015625 Z M 3.109375 -2.34375 L 2.375 -4.78125 L 1.65625 -2.34375 Z M 3.109375 -2.34375 "/></g></g></g><g fill="#000000" fill-opacity="1"><g transform="translate(8.860692, 29.542718)"><g><path d="M 2 2.140625 C 1.820312 2.003906 1.734375 1.816406 1.734375 1.578125 C 1.734375 1.398438 1.789062 1.234375 1.90625 1.078125 C 2.03125 0.929688 2.195312 0.851562 2.40625 0.84375 C 2.570312 1 2.972656 1.078125 3.609375 1.078125 C 4.148438 1.078125 4.664062 1.015625 5.15625 0.890625 C 5.644531 0.773438 5.890625 0.625 5.890625 0.4375 C 5.890625 0.375 5.859375 0.332031 5.796875 0.3125 C 5.734375 0.289062 5.640625 0.28125 5.515625 0.28125 C 5.304688 0.28125 4.867188 0.335938 4.203125 0.453125 C 3.703125 0.535156 3.289062 0.597656 2.96875 0.640625 C 2.65625 0.691406 2.347656 0.71875 2.046875 0.71875 C 1.128906 0.71875 0.640625 0.441406 0.578125 -0.109375 C 0.535156 -0.566406 0.929688 -0.96875 1.765625 -1.3125 C 1.222656 -1.5625 0.832031 -1.863281 0.59375 -2.21875 C 0.351562 -2.582031 0.234375 -2.988281 0.234375 -3.4375 C 0.234375 -3.882812 0.347656 -4.296875 0.578125 -4.671875 C 0.816406 -5.046875 1.15625 -5.34375 1.59375 -5.5625 C 2.039062 -5.78125 2.546875 -5.890625 3.109375 -5.890625 C 3.429688 -5.890625 3.757812 -5.84375 4.09375 -5.75 C 4.164062 -5.726562 4.234375 -5.71875 4.296875 -5.71875 C 4.441406 -5.71875 4.515625 -5.785156 4.515625 -5.921875 C 4.515625 -5.972656 4.5 -6.023438 4.46875 -6.078125 C 4.4375 -6.171875 4.421875 -6.265625 4.421875 -6.359375 C 4.421875 -6.535156 4.484375 -6.6875 4.609375 -6.8125 C 4.734375 -6.9375 4.898438 -7 5.109375 -7 C 5.316406 -7 5.484375 -6.929688 5.609375 -6.796875 C 5.742188 -6.660156 5.8125 -6.507812 5.8125 -6.34375 C 5.8125 -6.15625 5.765625 -6.007812 5.671875 -5.90625 C 5.578125 -5.800781 5.453125 -5.722656 5.296875 -5.671875 C 5.148438 -5.628906 4.929688 -5.582031 4.640625 -5.53125 C 5.066406 -5.375 5.445312 -5.101562 5.78125 -4.71875 C 6.125 -4.34375 6.296875 -3.914062 6.296875 -3.4375 C 6.296875 -2.914062 6.164062 -2.46875 5.90625 -2.09375 C 5.644531 -1.726562 5.285156 -1.453125 4.828125 -1.265625 C 4.378906 -1.078125 3.863281 -0.984375 3.28125 -0.984375 C 2.863281 -0.984375 2.453125 -1.039062 2.046875 -1.15625 C 2.046875 -0.988281 2.132812 -0.867188 2.3125 -0.796875 C 2.46875 -0.734375 2.6875 -0.703125 2.96875 -0.703125 C 3.1875 -0.703125 3.351562 -0.707031 3.46875 -0.71875 L 4.046875 -0.71875 C 4.554688 -0.71875 4.976562 -0.644531 5.3125 -0.5 C 5.65625 -0.351562 5.878906 -0.0664062 5.984375 0.359375 C 6.015625 0.453125 6.03125 0.539062 6.03125 0.625 C 6.03125 0.988281 5.863281 1.296875 5.53125 1.546875 C 5.195312 1.804688 4.785156 2 4.296875 2.125 C 3.816406 2.25 3.359375 2.3125 2.921875 2.3125 C 2.460938 2.3125 2.15625 2.253906 2 2.140625 Z M 3.5625 -1.171875 C 3.78125 -1.171875 3.953125 -1.316406 4.078125 -1.609375 C 4.210938 -1.898438 4.28125 -2.28125 4.28125 -2.75 C 4.28125 -2.96875 4.257812 -3.222656 4.21875 -3.515625 C 4.125 -4.148438 3.96875 -4.671875 3.75 -5.078125 C 3.53125 -5.484375 3.28125 -5.6875 3 -5.6875 C 2.78125 -5.6875 2.609375 -5.546875 2.484375 -5.265625 C 2.367188 -4.984375 2.3125 -4.609375 2.3125 -4.140625 C 2.3125 -3.921875 2.328125 -3.65625 2.359375 -3.34375 C 2.453125 -2.71875 2.609375 -2.195312 2.828125 -1.78125 C 3.046875 -1.375 3.289062 -1.171875 3.5625 -1.171875 Z M 3.5625 -1.171875 "/></g></g></g><g fill="#000000" fill-opacity="1"><g transform="translate(15.391347, 29.542718)"><g><path d="M 7.09375 0 L 5.171875 0 C 4.890625 -0.0078125 4.675781 -0.0664062 4.53125 -0.171875 C 4.382812 -0.273438 4.300781 -0.476562 4.28125 -0.78125 C 4.15625 -0.457031 3.914062 -0.210938 3.5625 -0.046875 C 3.21875 0.117188 2.828125 0.203125 2.390625 0.203125 C 2.003906 0.203125 1.640625 0.132812 1.296875 0 C 0.960938 -0.132812 0.695312 -0.328125 0.5 -0.578125 C 0.300781 -0.828125 0.21875 -1.128906 0.25 -1.484375 C 0.28125 -1.890625 0.414062 -2.222656 0.65625 -2.484375 C 0.894531 -2.742188 1.171875 -2.941406 1.484375 -3.078125 C 1.796875 -3.210938 2.195312 -3.359375 2.6875 -3.515625 C 3.0625 -3.628906 3.347656 -3.726562 3.546875 -3.8125 C 3.742188 -3.894531 3.910156 -4 4.046875 -4.125 C 4.179688 -4.257812 4.25 -4.421875 4.25 -4.609375 C 4.25 -5.015625 4.1875 -5.304688 4.0625 -5.484375 C 3.9375 -5.660156 3.707031 -5.738281 3.375 -5.71875 C 3.132812 -5.71875 2.9375 -5.628906 2.78125 -5.453125 C 2.625 -5.285156 2.546875 -5.09375 2.546875 -4.875 C 2.546875 -4.71875 2.59375 -4.578125 2.6875 -4.453125 C 2.789062 -4.328125 2.941406 -4.234375 3.140625 -4.171875 C 3.015625 -3.992188 2.800781 -3.84375 2.5 -3.71875 C 2.207031 -3.59375 1.910156 -3.53125 1.609375 -3.53125 C 1.304688 -3.53125 1.050781 -3.601562 0.84375 -3.75 C 0.632812 -3.894531 0.53125 -4.117188 0.53125 -4.421875 C 0.53125 -4.722656 0.671875 -4.984375 0.953125 -5.203125 C 1.234375 -5.421875 1.59375 -5.585938 2.03125 -5.703125 C 2.46875 -5.828125 2.914062 -5.890625 3.375 -5.890625 C 4.269531 -5.890625 5.023438 -5.703125 5.640625 -5.328125 C 6.253906 -4.953125 6.5625 -4.222656 6.5625 -3.140625 L 6.5625 -0.453125 C 6.5625 -0.222656 6.640625 -0.109375 6.796875 -0.109375 L 7.09375 -0.109375 Z M 2.90625 -0.734375 C 2.976562 -0.671875 3.070312 -0.617188 3.1875 -0.578125 C 3.3125 -0.546875 3.429688 -0.53125 3.546875 -0.53125 C 3.734375 -0.53125 3.894531 -0.597656 4.03125 -0.734375 C 4.175781 -0.867188 4.253906 -1.082031 4.265625 -1.375 L 4.265625 -4.1875 C 4.097656 -3.914062 3.828125 -3.570312 3.453125 -3.15625 C 3.242188 -2.914062 3.082031 -2.726562 2.96875 -2.59375 C 2.851562 -2.457031 2.757812 -2.316406 2.6875 -2.171875 C 2.59375 -1.972656 2.546875 -1.765625 2.546875 -1.546875 C 2.546875 -1.390625 2.578125 -1.238281 2.640625 -1.09375 C 2.703125 -0.945312 2.789062 -0.828125 2.90625 -0.734375 Z M 2.90625 -0.734375 "/></g></g></g><g fill="#000000" fill-opacity="1"><g transform="translate(22.71501, 29.542718)"><g><path d="M 2 -6.03125 C 1.707031 -6.03125 1.457031 -6.128906 1.25 -6.328125 C 1.050781 -6.535156 0.953125 -6.785156 0.953125 -7.078125 C 0.953125 -7.359375 1.050781 -7.601562 1.25 -7.8125 C 1.457031 -8.019531 1.707031 -8.125 2 -8.125 C 2.28125 -8.125 2.523438 -8.019531 2.734375 -7.8125 C 2.941406 -7.601562 3.046875 -7.359375 3.046875 -7.078125 C 3.046875 -6.785156 2.941406 -6.535156 2.734375 -6.328125 C 2.523438 -6.128906 2.28125 -6.03125 2 -6.03125 Z M 3.046875 -0.453125 C 3.046875 -0.234375 3.125 -0.117188 3.28125 -0.109375 L 3.5625 -0.109375 L 3.5625 0 L 0.234375 0 L 0.234375 -0.109375 L 0.53125 -0.109375 C 0.675781 -0.109375 0.75 -0.226562 0.75 -0.46875 L 0.75 -4.421875 C 0.75 -4.578125 0.695312 -4.691406 0.59375 -4.765625 C 0.5 -4.835938 0.378906 -4.867188 0.234375 -4.859375 L 0.234375 -4.953125 C 0.640625 -4.953125 1.109375 -5.039062 1.640625 -5.21875 C 2.179688 -5.394531 2.632812 -5.597656 3 -5.828125 L 3.046875 -5.765625 Z M 3.046875 -0.453125 "/></g></g></g><g fill="#000000" fill-opacity="1"><g transform="translate(26.516786, 29.542718)"><g><path d="M 7.234375 -0.109375 L 7.234375 0 L 3.890625 0 L 3.890625 -0.109375 L 4.1875 -0.109375 C 4.34375 -0.109375 4.421875 -0.226562 4.421875 -0.46875 L 4.421875 -4.25 C 4.421875 -4.800781 4.28125 -5.078125 4 -5.078125 C 3.851562 -5.078125 3.6875 -5.003906 3.5 -4.859375 C 3.320312 -4.722656 3.171875 -4.570312 3.046875 -4.40625 L 3.046875 -0.453125 C 3.046875 -0.234375 3.125 -0.117188 3.28125 -0.109375 L 3.5625 -0.109375 L 3.5625 0 L 0.234375 0 L 0.234375 -0.109375 L 0.53125 -0.109375 C 0.675781 -0.109375 0.75 -0.226562 0.75 -0.46875 L 0.75 -4.421875 C 0.75 -4.597656 0.695312 -4.71875 0.59375 -4.78125 C 0.5 -4.851562 0.378906 -4.878906 0.234375 -4.859375 L 0.234375 -4.953125 C 0.648438 -5.015625 1.125 -5.128906 1.65625 -5.296875 C 2.195312 -5.472656 2.644531 -5.648438 3 -5.828125 L 3.046875 -5.765625 L 3.046875 -4.609375 C 3.203125 -4.828125 3.421875 -5.046875 3.703125 -5.265625 C 3.992188 -5.484375 4.285156 -5.648438 4.578125 -5.765625 C 4.765625 -5.828125 4.96875 -5.859375 5.1875 -5.859375 C 5.601562 -5.859375 5.957031 -5.71875 6.25 -5.4375 C 6.550781 -5.164062 6.703125 -4.738281 6.703125 -4.15625 L 6.703125 -0.453125 C 6.703125 -0.347656 6.71875 -0.265625 6.75 -0.203125 C 6.789062 -0.140625 6.851562 -0.109375 6.9375 -0.109375 Z M 7.234375 -0.109375 "/></g></g></g></svg>